
        <svg xmlns="http://www.w3.org/2000/svg" xmlns:xlink="http://www.w3.org/1999/xlink" version="1.1" width="3461.5384615384614" 
        height="1675.1016658371195" viewBox="0 0 3461.5384615384614 1675.1016658371195">
			
			<g transform="scale(23.076923076923077) translate(10, 10)">
				<defs id="SvgjsDefs4001"><linearGradient id="SvgjsLinearGradient4006"><stop id="SvgjsStop4007" stop-color="#51504f" offset="0"></stop><stop id="SvgjsStop4008" stop-color="#939598" offset="0.5"></stop><stop id="SvgjsStop4009" stop-color="#51504f" offset="1"></stop></linearGradient><linearGradient id="SvgjsLinearGradient4010"><stop id="SvgjsStop4011" stop-color="#51504f" offset="0"></stop><stop id="SvgjsStop4012" stop-color="#939598" offset="0.5"></stop><stop id="SvgjsStop4013" stop-color="#51504f" offset="1"></stop></linearGradient></defs><g id="SvgjsG4002" featureKey="symbolFeature-0" transform="matrix(0.6974556785239728,0,0,0.6974556785239728,-16.161534059809757,-8.302232567748568)" fill="url(#SvgjsLinearGradient4006)"><path xmlns="http://www.w3.org/2000/svg" fill="url(#SvgjsLinearGradient4006)" d="M78.011,44.241c-2.695-1.496-7.618-0.542-11.961,0.302c-1.216,0.236-2.364,0.459-3.366,0.608  c-0.601,0.087-0.995-0.077-1.288-0.537c-1.361-2.142,0.126-9.453,4.015-15.319c4.832-7.289,5.908-10.532,2.318-14.216  c-2.647-2.718-7.425-1.752-13.474-0.53c-1.974,0.399-4.015,0.812-6.18,1.142c-8.072,1.231-15.796-2.347-16.407-2.639  c-0.501-0.488-1.103-0.845-1.829-1.029c-1.352-0.344-2.573,0.059-3.542,1.161c-3.762,4.274-3.667,18.746-2.117,30.864  C26.491,62.123,37,72.825,51,73.747v7.542c-9-2.178-8.979-2.181-9.092-2.181c-0.552,0-0.889,0.447-0.889,1  c0,0.5,0.422,0.914,0.901,0.988c0.327,0.067,2.945,0.684,6.424,1.515c-4.217,1.196-8.074,2.297-9.599,2.73  c-0.531,0.151-0.833,0.704-0.682,1.235c0.125,0.439,0.529,0.727,0.965,0.727c0.09,0,0.184-0.012,0.275-0.038  c2.992-0.851,8.211-2.333,13.044-3.702c5.406,1.296,11.582,2.78,14.997,3.603c0.079,0.019,0.157,0.027,0.235,0.027  c0.451,0,0.861-0.308,0.972-0.766c0.129-0.537-0.202-1.077-0.738-1.207c-4.636-1.115-8.422-2.025-11.527-2.771  c3.912-1.105,6.938-1.955,7.241-2.026c0.534-0.113,0.88-0.637,0.772-1.174c-0.108-0.541-0.861-0.899-1.398-0.785  C62.641,78.516,58,79.751,53,81.175v-7.358c0,0,0.306,0.003,0.348,0.003c0.34,0,0.794-0.005,1.141-0.014  c18.852-0.507,23.048-13.153,23.088-13.28c0.021-0.066,0.053-0.133,0.055-0.199C78.318,58.859,83.541,47.313,78.011,44.241z   M48.3,17.174c2.202-0.335,4.261-0.751,6.252-1.154c5.599-1.132,10.024-2.027,12.102,0.106c2.622,2.69,2.613,4.637-2.494,12.34  c-4.026,6.074-5.91,13.996-4.031,16.953c0.61,0.959,1.593,1.389,2.774,1.216c1.035-0.153,2.2-0.379,3.433-0.619  c3.889-0.755,8.728-1.697,10.946-0.463c3.693,2.051,0.676,10.596-0.931,14.021c-3.305-0.362-16.875-0.709-23.343-0.858  c-1.313-1.568-2.476-3.407-3.696-5.346c-1.035-1.644-2.104-3.344-3.334-4.971c-1.961-2.595-3.866-3.856-5.821-3.856  c-2.372,0-4.127,1.888-5.41,3.267c-0.228,0.245-0.442,0.476-0.644,0.678c-0.355,0.355-0.705,0.527-1.069,0.527h0  c-0.841,0-1.686-0.913-1.891-1.187c-3.042-5.575-2.812-13.414-1.309-16.58c1.07-2.253,4.498-11.146,3.074-16.045  C35.901,16.345,41.918,18.146,48.3,17.174z M74.588,60.691C72.557,61.76,68.763,63,62.885,63h-0.136  c-3.662,0-6.214-1.139-8.298-3.09C61.369,60.077,70.612,60.465,74.588,60.691z M54.559,72.306c-0.332,0.009-0.662,0.014-0.988,0.014  c-20.916,0-26.321-17.831-27.681-28.46c-1.867-14.591-1.251-26.52,1.532-29.683c0.457-0.519,0.948-0.771,1.501-0.771  c0.173,0,0.357,0.024,0.546,0.073c0.81,0.205,1.386,0.695,1.764,1.497c1.772,3.77-1.398,12.774-2.754,15.628  c-1.606,3.381-2.051,11.716,1.395,18.019c0.138,0.193,1.402,1.891,3.16,1.891c0,0,0,0,0,0c0.771,0,1.488-0.325,2.13-0.967  c0.213-0.213,0.44-0.457,0.682-0.716c1.155-1.243,2.593-2.789,4.312-2.789c1.433,0,2.989,1.097,4.625,3.261  c1.191,1.576,2.244,3.271,3.261,4.888C51.534,59.738,54.83,65,62.749,65h0.148c5.973,0,9.915-1.455,12.167-2.602  C72.946,65.844,67.385,71.961,54.559,72.306z"></path></g><g id="SvgjsG4003" featureKey="nameFeature-0" transform="matrix(1.1048363503663434,0,0,1.1048363503663434,60,-2.1696493806591377)" fill="url(#SvgjsLinearGradient4010)"><path d="M0 12.079999999999998 l1.44 0 l0 26.48 l15.32 0 l0 -4 l-11.28 0 l0 -3.84 l1.44 0 l0 2.4 l11.28 0 l0 6.88 l-18.2 0 l0 -27.92 z M2.72 12.079999999999998 l15.28 0 l0 6.84 l-9.6 0 l0 -1.44 l8.16 0 l0 -3.96 l-12.4 0 l0 11.56 l9.32 0 l0 1.44 l-10.76 0 l0 -14.44 z M2.72 27.8 l12.16 0 l0 -4 l-9.4 0 l0 -9.08 l9.68 0 l0 1.44 l-8.24 0 l0 6.2 l9.4 0 l0 6.88 l-12.16 0 l0 6.64 l11.2 0 l0 1.44 l-12.64 0 l0 -9.52 z M25.64 33.4 c1.96 0.88 3.68 1.32 5.12 1.32 c0.72 0 1.16 -0.04 1.36 -0.16 c0.92 -0.24 1.56 -0.76 1.96 -1.56 l0.04 -0.08 c0.2 -0.36 0.28 -0.8 0.28 -1.36 c0 -0.28 -0.08 -0.6 -0.24 -1 l-0.08 -0.16 c-0.52 -1.08 -1.68 -1.8 -3.8 -2.48 l-0.4 -0.12 l-0.12 -0.04 c-3.24 -0.96 -5.32 -2.48 -6.32 -4.6 c-0.4 -0.8 -0.6 -1.68 -0.6 -2.64 c0 -1 0.2 -1.96 0.6 -2.96 l0.08 -0.16 c0.92 -1.84 2.4 -3.04 4.36 -3.64 c1.4 -0.2 2.2 -0.32 2.4 -0.32 c2.72 0 5.88 1.12 9.44 3.32 l0.76 -1.24 c-3.88 -2.36 -7.24 -3.52 -10.16 -3.52 c-1.16 0 -2.12 0.12 -2.8 0.4 c-2.36 0.64 -4.12 2.08 -5.28 4.36 l-0.12 0.28 c-0.48 1.16 -0.72 2.32 -0.72 3.48 c0 1.24 0.24 2.32 0.72 3.28 c1.24 2.48 3.64 4.24 7.24 5.32 l0.48 0.16 c1.64 0.52 2.6 1.08 2.96 1.72 l0.04 0.08 c0.08 0.12 0.12 0.28 0.12 0.48 c0 0.36 -0.04 0.6 -0.16 0.8 c-0.28 0.64 -0.96 0.96 -2.04 0.96 c-1.72 0 -4.2 -0.88 -6.12 -2.12 l-0.6 -0.36 l-3.52 5.68 l0.6 0.36 c2.84 1.92 6.6 3.12 9.64 3.12 c1 0 1.92 -0.12 2.76 -0.36 c2.36 -0.68 4.12 -2.16 5.28 -4.4 l0.16 -0.28 c0.48 -1.24 0.72 -2.4 0.72 -3.48 c0 -0.96 -0.32 -2.16 -0.92 -3.64 c-1.08 -2.16 -3.36 -3.8 -6.92 -4.92 l-0.56 -0.16 c-1.12 -0.36 -1.88 -0.72 -2.24 -1 c-0.48 -0.4 -0.76 -0.68 -0.88 -0.84 l-0.08 -0.44 c0 -0.4 0.08 -0.76 0.28 -1.04 c0.32 -0.6 0.64 -0.76 1.92 -0.76 c1.72 0 4.2 0.88 6.12 2.12 l0.6 0.36 l2.16 -3.44 l-0.64 -0.36 c-2.44 -1.6 -5.76 -2.72 -8.2 -2.72 c-1.08 0 -1.76 0.08 -2.12 0.28 c-1.64 0.48 -2.88 1.52 -3.68 3.08 c-0.36 0.68 -0.52 1.48 -0.52 2.48 c0 0.76 0.16 1.48 0.48 2.16 c0.84 1.8 2.72 3.12 5.64 4 l0.52 0.16 l1.08 0.4 c0.6 0.24 1.24 0.56 1.96 0.96 c1.28 0.76 1.92 1.84 1.92 3.28 c0 0.8 -0.2 1.56 -0.56 2.24 c-0.84 1.48 -2.28 2.24 -4.28 2.24 c-1.36 0 -3.28 -0.52 -5.76 -1.52 l-0.68 1.16 l-0.04 0.08 c2.28 1.16 4.44 1.72 6.52 1.72 c1.16 0 2.24 -0.24 3.2 -0.72 c1.88 -0.92 3.04 -2.84 3.04 -5.24 c0 -3.8 -2.92 -4.92 -6 -6 l-0.52 -0.16 c-2.52 -0.76 -4.08 -1.8 -4.72 -3.2 c-0.24 -0.48 -0.36 -1 -0.36 -1.6 c0 -0.76 0.12 -1.36 0.4 -1.88 c0.64 -1.16 1.56 -1.92 2.76 -2.28 l1.6 -0.2 c2.12 0 4.44 0.72 6.96 2.12 l-0.64 1 c-2.6 -1.28 -4.68 -1.92 -6.2 -1.92 c-0.76 0 -1.2 0.04 -1.4 0.16 c-0.88 0.24 -1.52 0.76 -1.96 1.6 l-0.04 0.08 c-0.2 0.36 -0.28 0.84 -0.28 1.44 c0 0.44 0.08 0.76 0.2 0.96 c0.52 1.08 1.88 1.96 4.04 2.6 l0.52 0.16 l1 0.32 c0.12 0.04 0.76 0.32 1.92 0.88 c1.56 0.88 2.68 2 3.32 3.32 c0.4 0.8 0.6 1.68 0.6 2.64 c0 1.16 -0.2 2.16 -0.64 3 l-0.08 0.16 c-0.92 1.84 -2.4 3.04 -4.36 3.64 c-1.4 0.2 -2.2 0.32 -2.4 0.32 c-2.04 0 -4.68 -0.76 -7.12 -1.92 l-1.12 -0.6 l2 -3.24 z M62.44 27.64 c1.04 1.88 1.44 5.16 -0.12 7.84 c-1.6 2.8 -4.64 4.48 -8.08 4.52 c-3.52 -0.04 -6.52 -1.72 -8.12 -4.52 c-1.56 -2.68 -1.16 -5.96 -0.12 -7.84 c0.48 -0.84 1.08 -1.6 1.88 -2.32 c-3.24 -3.16 -2.44 -6.68 -1.92 -8.08 c1.36 -3.64 5.24 -5.32 8.28 -5.32 c3 0 6.88 1.68 8.24 5.32 c0.56 1.48 1.44 5.36 -2.56 8.68 c-0.44 0.36 -0.92 0.68 -1.44 1 c0.72 0.56 1.28 1.2 1.64 1.88 c0.76 1.36 0.96 3.68 -0.04 5.44 c-1.16 2 -3.36 3.2 -5.84 3.24 l-0.04 0 c-2.48 -0.04 -4.64 -1.24 -5.84 -3.24 c-1 -1.76 -0.8 -4.08 -0.04 -5.44 c1.08 -1.96 3.36 -3.12 5.64 -4.04 c4.04 -1.6 5.64 -3.68 4.72 -6.16 c-0.36 -0.96 -1.72 -2.72 -4.44 -2.72 c-2.76 0 -4.12 1.76 -4.48 2.72 c-0.64 1.72 -0.08 3.2 1.64 4.52 c0.12 -0.04 0.2 -0.08 0.28 -0.12 c0.44 -0.2 0.84 -0.36 1.24 -0.52 c0.36 -0.16 0.68 -0.32 1 -0.44 c0.4 -0.2 0.76 -0.4 1.04 -0.56 c1.16 -0.76 1.52 -1.36 1.24 -2.04 c-0.24 -0.72 -1.32 -1.04 -1.96 -1.04 c-0.68 0 -1.76 0.32 -2 1.04 c-0.2 0.48 -0.12 0.76 0.08 1.08 c0.16 0.2 0.4 0.48 0.8 0.88 l-0.6 0.28 c-0.2 0.08 -0.44 0.2 -0.72 0.28 c-0.28 -0.2 -0.48 -0.44 -0.68 -0.68 c-0.48 -0.72 -0.6 -1.48 -0.24 -2.36 c0.52 -1.44 2.28 -1.96 3.36 -1.96 c1.04 0 2.8 0.52 3.32 1.96 c0.36 0.88 0.24 1.64 -0.24 2.36 c-0.52 0.72 -1.48 1.44 -2.8 2.08 c-0.32 0.12 -0.68 0.28 -1.04 0.44 c-0.6 0.24 -1.2 0.52 -1.84 0.8 l-0.36 0.2 l-0.36 -0.24 c-3.24 -2.24 -3.16 -4.76 -2.52 -6.48 c0.96 -2.52 3.68 -3.64 5.84 -3.64 c2.12 0 4.84 1.12 5.8 3.64 c0.6 1.64 0.4 3.24 -0.6 4.64 c-0.92 1.32 -2.6 2.44 -4.92 3.4 c-2.04 0.8 -4.08 1.8 -4.92 3.36 c-0.56 1 -0.72 2.76 0.04 4.04 c0.88 1.56 2.6 2.48 4.6 2.52 c1.96 -0.04 3.68 -0.96 4.56 -2.52 c0.76 -1.28 0.6 -3.04 0.04 -4.04 c-0.32 -0.64 -0.92 -1.24 -1.76 -1.8 c-1.04 0.56 -2 0.96 -2.56 1.2 c-1.44 0.64 -2.32 1.24 -2.64 1.8 c-0.16 0.28 -0.28 1.12 0.04 1.6 c0.44 0.76 1.28 1.24 2.32 1.24 c1 0 1.88 -0.48 2.28 -1.24 c0.36 -0.52 0.32 -1.6 -0.48 -2.4 c-0.28 -0.28 -0.48 -0.4 -0.48 -0.4 c0.28 -0.12 1.12 -0.48 1.36 -0.64 c0.44 0.36 0.72 0.76 0.92 1.12 c0.4 0.72 0.56 2.04 -0.04 3.08 c-0.72 1.2 -2.04 1.92 -3.56 1.92 c-1.56 0 -2.88 -0.72 -3.6 -1.92 c-0.6 -1.04 -0.36 -2.44 -0.04 -3.08 c0.48 -0.84 1.56 -1.64 3.32 -2.44 l0.04 0 c0.8 -0.32 3.52 -1.44 5.04 -2.72 c3.16 -2.64 2.68 -5.56 2.12 -7.08 c-1.12 -3 -4.36 -4.36 -6.88 -4.36 c-2.56 0 -5.8 1.36 -6.92 4.36 c-0.56 1.52 -1.04 4.44 2.12 7.08 l0.72 0.6 l-0.72 0.56 c-0.96 0.72 -1.68 1.48 -2.16 2.36 c-0.84 1.56 -1.2 4.24 0.08 6.44 c1.36 2.36 3.92 3.76 6.84 3.76 l0.04 0 c2.92 0 5.48 -1.4 6.84 -3.76 c1.28 -2.2 0.92 -4.88 0.08 -6.44 c-0.24 -0.48 -0.52 -0.88 -0.88 -1.24 c0.32 -0.24 0.72 -0.56 1.08 -0.96 c0.44 0.48 0.76 0.92 1.08 1.52 z"></path></g>
			</g>
		</svg>
	